<?xml version="1.0" encoding="UTF-8"?>
<svg id="svg12" xmlns="http://www.w3.org/2000/svg" xmlns:xlink="http://www.w3.org/1999/xlink" viewBox="0 0 91.68 23.92">
  <defs>
    <style>
      .cls-1 {
        fill: #fff;
      }

      .cls-2 {
        fill: url(#Unbenannter_Verlauf_140);
      }

      .cls-3 {
        fill: url(#Unbenannter_Verlauf_140-3);
      }

      .cls-4 {
        font-family: SegoeWP-Semibold, 'Segoe WP Semibold';
        font-size: 19px;
        font-weight: 600;
      }

      .cls-5 {
        fill: url(#Unbenannter_Verlauf_140-2);
      }
    </style>
    <linearGradient id="Unbenannter_Verlauf_140" data-name="Unbenannter Verlauf 140" x1="2.92" y1="8.71" x2="28.36" y2="8.71" gradientUnits="userSpaceOnUse">
      <stop offset="0" stop-color="#0087ff"/>
      <stop offset="1" stop-color="#00d6ff"/>
    </linearGradient>
    <linearGradient id="Unbenannter_Verlauf_140-2" data-name="Unbenannter Verlauf 140" x1="2.92" y1="18.85" x2="28.36" y2="18.85" xlink:href="#Unbenannter_Verlauf_140"/>
    <linearGradient id="Unbenannter_Verlauf_140-3" data-name="Unbenannter Verlauf 140" x1="2.92" y1="15.19" x2="28.36" y2="15.19" xlink:href="#Unbenannter_Verlauf_140"/>
  </defs>
  <g>
    <path class="cls-1" d="M2.92,8.71c.09,.05,.14,.09,.21,.13,4.11,2.21,8.21,4.43,12.32,6.64,.15,.08,.27,.07,.41,0,4.08-2.2,8.16-4.4,12.25-6.6,.08-.04,.16-.09,.26-.15-.1-.06-.17-.1-.24-.14-4.09-2.21-8.18-4.41-12.27-6.62-.15-.08-.26-.08-.41,0-4,2.16-7.99,4.31-11.99,6.47-.17,.09-.34,.19-.53,.29Zm0,7.17c.09,.06,.14,.09,.2,.12,4.11,2.22,8.23,4.44,12.34,6.67,.14,.08,.25,.07,.39,0,4.1-2.22,8.19-4.43,12.29-6.64,.07-.04,.13-.08,.23-.14-.49-.27-.96-.5-1.4-.77-.26-.16-.45-.13-.7,0-3.46,1.88-6.92,3.74-10.37,5.61-.14,.08-.26,.13-.44,.03-1.66-.91-3.32-1.8-4.99-2.7-1.86-1-3.72-2.01-5.58-3.01-.09-.05-.23-.09-.31-.06-.54,.28-1.07,.57-1.65,.89Zm0-3.64c.09,.06,.14,.09,.18,.11,4.12,2.23,8.24,4.46,12.36,6.67,.09,.05,.26,.05,.36,0,4.11-2.21,8.21-4.43,12.32-6.65,.06-.03,.12-.08,.21-.14-.53-.29-1.02-.55-1.5-.82-.17-.1-.3-.1-.48,0-3.49,1.89-6.98,3.78-10.47,5.67-.18,.1-.32,.11-.51,0-1.41-.77-2.83-1.53-4.24-2.3-2.09-1.13-4.18-2.26-6.28-3.38-.08-.04-.22-.09-.28-.06-.55,.28-1.09,.58-1.67,.9Z"/>
    <path class="cls-2" d="M2.92,8.71c.19-.11,.36-.2,.53-.29,4-2.15,8-4.31,11.99-6.47,.15-.08,.26-.08,.41,0,4.09,2.21,8.18,4.41,12.27,6.62,.07,.04,.14,.08,.24,.14-.1,.06-.18,.11-.26,.15-4.08,2.2-8.17,4.4-12.25,6.6-.15,.08-.26,.09-.41,0-4.1-2.22-8.21-4.43-12.32-6.64-.06-.03-.12-.07-.21-.13Zm3.57,0c.11,.06,.18,.1,.26,.15,2.88,1.55,5.76,3.1,8.63,4.66,.18,.1,.32,.11,.51,0,2.31-1.25,4.62-2.49,6.93-3.74,.64-.35,1.29-.69,1.97-1.06-.09-.06-.16-.1-.22-.14-2.9-1.56-5.8-3.13-8.7-4.69-.16-.09-.28-.09-.44,0-2.89,1.56-5.78,3.12-8.68,4.68-.08,.04-.15,.09-.25,.14Z"/>
    <path class="cls-5" d="M2.92,15.88c.58-.32,1.11-.61,1.65-.89,.08-.04,.22,0,.31,.06,1.86,1,3.72,2,5.58,3.01,1.66,.9,3.33,1.79,4.99,2.7,.18,.1,.29,.05,.44-.03,3.46-1.87,6.92-3.74,10.37-5.61,.25-.14,.44-.16,.7,0,.44,.27,.91,.5,1.4,.77-.1,.06-.16,.11-.23,.14-4.1,2.21-8.19,4.43-12.29,6.64-.14,.08-.25,.08-.39,0-4.11-2.23-8.22-4.45-12.34-6.67-.05-.03-.1-.06-.2-.12Z"/>
    <path class="cls-3" d="M2.92,12.23c.58-.32,1.12-.62,1.67-.9,.07-.03,.2,.01,.28,.06,2.09,1.13,4.19,2.26,6.28,3.38,1.42,.76,2.83,1.53,4.24,2.3,.19,.1,.33,.09,.51,0,3.49-1.89,6.98-3.77,10.47-5.67,.18-.1,.31-.1,.48,0,.48,.28,.97,.54,1.5,.82-.09,.06-.15,.11-.21,.14-4.1,2.22-8.21,4.44-12.32,6.65-.09,.05-.26,.05-.36,0-4.12-2.22-8.24-4.45-12.36-6.67-.05-.02-.09-.05-.18-.11Z"/>
    <path class="cls-1" d="M6.5,8.71c.1-.06,.17-.1,.25-.14,2.89-1.56,5.79-3.12,8.68-4.68,.16-.09,.28-.09,.44,0,2.9,1.57,5.8,3.13,8.7,4.69,.07,.04,.13,.08,.22,.14-.68,.36-1.32,.71-1.97,1.06-2.31,1.24-4.62,2.49-6.93,3.74-.19,.1-.32,.09-.51,0-2.87-1.56-5.75-3.1-8.63-4.66-.08-.04-.15-.09-.26-.15Z"/>
  </g>
  <text class="cls-4" transform="translate(33.9 18.29)"><tspan x="0" y="0">SumAI</tspan></text>
</svg>